<mxfile host="app.diagrams.net" agent="Mozilla/5.0 (Macintosh; Intel Mac OS X 10.15; rv:128.0) Gecko/20100101 Firefox/128.0" version="24.7.4" pages="3">
  <diagram id="I6hz8KBpvXBDOnkuni42" name="Monolithic Lambda">
    <mxGraphModel dx="2353" dy="822" grid="1" gridSize="10" guides="1" tooltips="1" connect="1" arrows="1" fold="1" page="1" pageScale="1" pageWidth="850" pageHeight="1100" math="0" shadow="0">
      <root>
        <mxCell id="0" />
        <mxCell id="1" parent="0" />
        <mxCell id="mwGx68rkcpz4AwPUT-rU-1" style="edgeStyle=orthogonalEdgeStyle;curved=1;rounded=0;orthogonalLoop=1;jettySize=auto;html=1;entryX=0;entryY=0.75;entryDx=0;entryDy=0;" parent="1" source="mwGx68rkcpz4AwPUT-rU-9" target="mwGx68rkcpz4AwPUT-rU-10" edge="1">
          <mxGeometry relative="1" as="geometry">
            <mxPoint x="160" y="440" as="targetPoint" />
            <Array as="points">
              <mxPoint x="320" y="415" />
              <mxPoint x="150" y="415" />
              <mxPoint x="150" y="520" />
            </Array>
          </mxGeometry>
        </mxCell>
        <mxCell id="mwGx68rkcpz4AwPUT-rU-2" value="POST /users" style="edgeLabel;html=1;align=center;verticalAlign=middle;resizable=0;points=[];" parent="mwGx68rkcpz4AwPUT-rU-1" vertex="1" connectable="0">
          <mxGeometry x="0.0716" y="2" relative="1" as="geometry">
            <mxPoint x="28" y="72" as="offset" />
          </mxGeometry>
        </mxCell>
        <mxCell id="mwGx68rkcpz4AwPUT-rU-3" style="edgeStyle=orthogonalEdgeStyle;curved=1;rounded=0;orthogonalLoop=1;jettySize=auto;html=1;exitX=0.5;exitY=1;exitDx=0;exitDy=0;entryX=0;entryY=0.25;entryDx=0;entryDy=0;" parent="1" source="mwGx68rkcpz4AwPUT-rU-9" target="mwGx68rkcpz4AwPUT-rU-10" edge="1">
          <mxGeometry relative="1" as="geometry">
            <mxPoint x="260" y="450" as="targetPoint" />
            <Array as="points">
              <mxPoint x="320" y="415" />
              <mxPoint x="220" y="415" />
              <mxPoint x="220" y="480" />
            </Array>
          </mxGeometry>
        </mxCell>
        <mxCell id="mwGx68rkcpz4AwPUT-rU-4" value="GET /users/{id}" style="edgeLabel;html=1;align=center;verticalAlign=middle;resizable=0;points=[];" parent="mwGx68rkcpz4AwPUT-rU-3" vertex="1" connectable="0">
          <mxGeometry x="0.6492" y="6" relative="1" as="geometry">
            <mxPoint y="-5" as="offset" />
          </mxGeometry>
        </mxCell>
        <mxCell id="mwGx68rkcpz4AwPUT-rU-5" style="edgeStyle=orthogonalEdgeStyle;curved=1;rounded=0;orthogonalLoop=1;jettySize=auto;html=1;exitX=0.5;exitY=1;exitDx=0;exitDy=0;entryX=1;entryY=0.25;entryDx=0;entryDy=0;" parent="1" source="mwGx68rkcpz4AwPUT-rU-9" target="mwGx68rkcpz4AwPUT-rU-10" edge="1">
          <mxGeometry relative="1" as="geometry">
            <mxPoint x="380" y="450" as="targetPoint" />
            <Array as="points">
              <mxPoint x="320" y="415" />
              <mxPoint x="430" y="415" />
              <mxPoint x="430" y="480" />
            </Array>
          </mxGeometry>
        </mxCell>
        <mxCell id="mwGx68rkcpz4AwPUT-rU-6" value="PUT /users/{id}" style="edgeLabel;html=1;align=center;verticalAlign=middle;resizable=0;points=[];" parent="mwGx68rkcpz4AwPUT-rU-5" vertex="1" connectable="0">
          <mxGeometry x="0.6099" y="-4" relative="1" as="geometry">
            <mxPoint x="-2" y="-6" as="offset" />
          </mxGeometry>
        </mxCell>
        <mxCell id="mwGx68rkcpz4AwPUT-rU-7" style="edgeStyle=orthogonalEdgeStyle;curved=1;rounded=0;orthogonalLoop=1;jettySize=auto;html=1;entryX=1;entryY=0.75;entryDx=0;entryDy=0;" parent="1" source="mwGx68rkcpz4AwPUT-rU-9" target="mwGx68rkcpz4AwPUT-rU-10" edge="1">
          <mxGeometry relative="1" as="geometry">
            <mxPoint x="500" y="450" as="targetPoint" />
            <Array as="points">
              <mxPoint x="320" y="415" />
              <mxPoint x="510" y="415" />
              <mxPoint x="510" y="520" />
            </Array>
          </mxGeometry>
        </mxCell>
        <mxCell id="mwGx68rkcpz4AwPUT-rU-8" value="DELETE /users/{id}" style="edgeLabel;html=1;align=center;verticalAlign=middle;resizable=0;points=[];" parent="mwGx68rkcpz4AwPUT-rU-7" vertex="1" connectable="0">
          <mxGeometry x="0.3316" y="-4" relative="1" as="geometry">
            <mxPoint x="-46" y="6" as="offset" />
          </mxGeometry>
        </mxCell>
        <mxCell id="mwGx68rkcpz4AwPUT-rU-9" value="API Gateway" style="rounded=0;whiteSpace=wrap;html=1;" parent="1" vertex="1">
          <mxGeometry x="100" y="310" width="440" height="60" as="geometry" />
        </mxCell>
        <mxCell id="mwGx68rkcpz4AwPUT-rU-10" value="" style="whiteSpace=wrap;html=1;aspect=fixed;" parent="1" vertex="1">
          <mxGeometry x="275" y="460" width="80" height="80" as="geometry" />
        </mxCell>
        <mxCell id="mwGx68rkcpz4AwPUT-rU-11" value="" style="sketch=0;points=[[0,0,0],[0.25,0,0],[0.5,0,0],[0.75,0,0],[1,0,0],[0,1,0],[0.25,1,0],[0.5,1,0],[0.75,1,0],[1,1,0],[0,0.25,0],[0,0.5,0],[0,0.75,0],[1,0.25,0],[1,0.5,0],[1,0.75,0]];outlineConnect=0;fontColor=#232F3E;fillColor=#ED7100;strokeColor=#ffffff;dashed=0;verticalLabelPosition=bottom;verticalAlign=top;align=center;html=1;fontSize=12;fontStyle=0;aspect=fixed;shape=mxgraph.aws4.resourceIcon;resIcon=mxgraph.aws4.lambda;" parent="1" vertex="1">
          <mxGeometry x="290" y="475" width="50" height="50" as="geometry" />
        </mxCell>
        <mxCell id="mwGx68rkcpz4AwPUT-rU-18" style="edgeStyle=orthogonalEdgeStyle;curved=1;rounded=0;orthogonalLoop=1;jettySize=auto;html=1;" parent="1" source="mwGx68rkcpz4AwPUT-rU-19" target="mwGx68rkcpz4AwPUT-rU-28" edge="1">
          <mxGeometry relative="1" as="geometry" />
        </mxCell>
        <mxCell id="mwGx68rkcpz4AwPUT-rU-19" value="Lambda" style="text;html=1;align=center;verticalAlign=middle;resizable=0;points=[];autosize=1;strokeColor=none;fillColor=none;" parent="1" vertex="1">
          <mxGeometry x="280" y="540" width="70" height="30" as="geometry" />
        </mxCell>
        <mxCell id="mwGx68rkcpz4AwPUT-rU-23" value="User Microservice" style="text;html=1;align=center;verticalAlign=middle;resizable=0;points=[];autosize=1;strokeColor=none;fillColor=none;" parent="1" vertex="1">
          <mxGeometry x="260" y="260" width="120" height="30" as="geometry" />
        </mxCell>
        <mxCell id="mwGx68rkcpz4AwPUT-rU-24" style="edgeStyle=orthogonalEdgeStyle;curved=1;rounded=0;orthogonalLoop=1;jettySize=auto;html=1;exitX=0.5;exitY=1;exitDx=0;exitDy=0;entryX=0.5;entryY=0;entryDx=0;entryDy=0;" parent="1" source="mwGx68rkcpz4AwPUT-rU-28" target="mwGx68rkcpz4AwPUT-rU-40" edge="1">
          <mxGeometry relative="1" as="geometry" />
        </mxCell>
        <mxCell id="mwGx68rkcpz4AwPUT-rU-28" value="cmd" style="rounded=0;whiteSpace=wrap;html=1;fillColor=#dae8fc;strokeColor=#6c8ebf;" parent="1" vertex="1">
          <mxGeometry x="90" y="600" width="450" height="60" as="geometry" />
        </mxCell>
        <mxCell id="ZO9Y2LUHrryVGm9w0X5O-2" value="" style="edgeStyle=orthogonalEdgeStyle;curved=1;rounded=0;orthogonalLoop=1;jettySize=auto;html=1;entryX=0.5;entryY=0;entryDx=0;entryDy=0;" parent="1" source="mwGx68rkcpz4AwPUT-rU-30" target="mwGx68rkcpz4AwPUT-rU-35" edge="1">
          <mxGeometry relative="1" as="geometry">
            <mxPoint x="315" y="1040" as="targetPoint" />
          </mxGeometry>
        </mxCell>
        <mxCell id="mwGx68rkcpz4AwPUT-rU-30" value="internal" style="rounded=0;whiteSpace=wrap;html=1;fillColor=#dae8fc;strokeColor=#6c8ebf;" parent="1" vertex="1">
          <mxGeometry x="90" y="940" width="450" height="60" as="geometry" />
        </mxCell>
        <mxCell id="mwGx68rkcpz4AwPUT-rU-31" value="" style="edgeStyle=orthogonalEdgeStyle;curved=1;rounded=0;orthogonalLoop=1;jettySize=auto;html=1;" parent="1" source="mwGx68rkcpz4AwPUT-rU-32" target="mwGx68rkcpz4AwPUT-rU-49" edge="1">
          <mxGeometry relative="1" as="geometry" />
        </mxCell>
        <mxCell id="mwGx68rkcpz4AwPUT-rU-32" value="services" style="rounded=0;whiteSpace=wrap;html=1;fillColor=#dae8fc;strokeColor=#6c8ebf;" parent="1" vertex="1">
          <mxGeometry x="90" y="1280" width="230" height="60" as="geometry" />
        </mxCell>
        <mxCell id="mwGx68rkcpz4AwPUT-rU-33" value="&lt;b&gt;Repo&lt;/b&gt; github.com/my-rad-organization/services/users&lt;br&gt;&lt;b&gt;Module&lt;/b&gt; github.com/my-rad-organization/services/users" style="text;html=1;align=center;verticalAlign=middle;resizable=0;points=[];autosize=1;strokeColor=none;fillColor=none;" parent="1" vertex="1">
          <mxGeometry x="160" y="185" width="320" height="40" as="geometry" />
        </mxCell>
        <mxCell id="mwGx68rkcpz4AwPUT-rU-34" value="" style="edgeStyle=orthogonalEdgeStyle;curved=1;rounded=0;orthogonalLoop=1;jettySize=auto;html=1;" parent="1" source="mwGx68rkcpz4AwPUT-rU-35" target="mwGx68rkcpz4AwPUT-rU-46" edge="1">
          <mxGeometry relative="1" as="geometry" />
        </mxCell>
        <mxCell id="mwGx68rkcpz4AwPUT-rU-35" value="handlers" style="rounded=0;whiteSpace=wrap;html=1;dashed=1;fillColor=#dae8fc;strokeColor=#6c8ebf;" parent="1" vertex="1">
          <mxGeometry x="90" y="1070" width="450" height="60" as="geometry" />
        </mxCell>
        <mxCell id="mwGx68rkcpz4AwPUT-rU-36" value="" style="shape=flexArrow;endArrow=classic;html=1;rounded=0;curved=1;" parent="1" edge="1">
          <mxGeometry width="50" height="50" relative="1" as="geometry">
            <mxPoint x="50" y="310" as="sourcePoint" />
            <mxPoint x="60" y="1370" as="targetPoint" />
          </mxGeometry>
        </mxCell>
        <mxCell id="mwGx68rkcpz4AwPUT-rU-37" style="edgeStyle=orthogonalEdgeStyle;curved=1;rounded=0;orthogonalLoop=1;jettySize=auto;html=1;" parent="1" source="mwGx68rkcpz4AwPUT-rU-38" target="mwGx68rkcpz4AwPUT-rU-30" edge="1">
          <mxGeometry relative="1" as="geometry" />
        </mxCell>
        <mxCell id="mwGx68rkcpz4AwPUT-rU-38" value="main.go" style="sketch=0;aspect=fixed;pointerEvents=1;shadow=0;dashed=0;html=1;strokeColor=none;labelPosition=center;verticalLabelPosition=bottom;verticalAlign=top;align=center;fillColor=#00188D;shape=mxgraph.mscae.enterprise.code_file" parent="1" vertex="1">
          <mxGeometry x="290.5" y="820" width="49" height="50" as="geometry" />
        </mxCell>
        <mxCell id="mwGx68rkcpz4AwPUT-rU-39" value="" style="edgeStyle=orthogonalEdgeStyle;curved=1;rounded=0;orthogonalLoop=1;jettySize=auto;html=1;" parent="1" source="mwGx68rkcpz4AwPUT-rU-40" target="mwGx68rkcpz4AwPUT-rU-38" edge="1">
          <mxGeometry relative="1" as="geometry" />
        </mxCell>
        <mxCell id="mwGx68rkcpz4AwPUT-rU-40" value="lambda" style="rounded=0;whiteSpace=wrap;html=1;fillColor=#dae8fc;strokeColor=#6c8ebf;" parent="1" vertex="1">
          <mxGeometry x="270" y="720" width="90" height="60" as="geometry" />
        </mxCell>
        <mxCell id="mwGx68rkcpz4AwPUT-rU-44" value="" style="edgeStyle=orthogonalEdgeStyle;curved=1;rounded=0;orthogonalLoop=1;jettySize=auto;html=1;" parent="1" source="mwGx68rkcpz4AwPUT-rU-46" target="mwGx68rkcpz4AwPUT-rU-32" edge="1">
          <mxGeometry relative="1" as="geometry" />
        </mxCell>
        <mxCell id="mwGx68rkcpz4AwPUT-rU-45" style="edgeStyle=orthogonalEdgeStyle;curved=1;rounded=0;orthogonalLoop=1;jettySize=auto;html=1;exitX=1;exitY=0.5;exitDx=0;exitDy=0;exitPerimeter=0;entryX=0.5;entryY=0;entryDx=0;entryDy=0;" parent="1" source="mwGx68rkcpz4AwPUT-rU-46" target="mwGx68rkcpz4AwPUT-rU-51" edge="1">
          <mxGeometry relative="1" as="geometry" />
        </mxCell>
        <mxCell id="mwGx68rkcpz4AwPUT-rU-46" value="create_user.go" style="sketch=0;aspect=fixed;pointerEvents=1;shadow=0;dashed=0;html=1;strokeColor=none;labelPosition=center;verticalLabelPosition=bottom;verticalAlign=top;align=center;fillColor=#00188D;shape=mxgraph.mscae.enterprise.code_file" parent="1" vertex="1">
          <mxGeometry x="290.5" y="1170" width="49" height="50" as="geometry" />
        </mxCell>
        <mxCell id="mwGx68rkcpz4AwPUT-rU-47" style="edgeStyle=orthogonalEdgeStyle;curved=1;rounded=0;orthogonalLoop=1;jettySize=auto;html=1;entryX=0;entryY=0.5;entryDx=0;entryDy=0;" parent="1" source="mwGx68rkcpz4AwPUT-rU-49" target="mwGx68rkcpz4AwPUT-rU-51" edge="1">
          <mxGeometry relative="1" as="geometry" />
        </mxCell>
        <mxCell id="mwGx68rkcpz4AwPUT-rU-48" style="edgeStyle=orthogonalEdgeStyle;curved=1;rounded=0;orthogonalLoop=1;jettySize=auto;html=1;entryX=1;entryY=0.5;entryDx=0;entryDy=0;" parent="1" source="mwGx68rkcpz4AwPUT-rU-49" target="mwGx68rkcpz4AwPUT-rU-59" edge="1">
          <mxGeometry relative="1" as="geometry" />
        </mxCell>
        <mxCell id="mwGx68rkcpz4AwPUT-rU-49" value="user.go" style="sketch=0;aspect=fixed;pointerEvents=1;shadow=0;dashed=0;html=1;strokeColor=none;labelPosition=center;verticalLabelPosition=bottom;verticalAlign=top;align=center;fillColor=#00188D;shape=mxgraph.mscae.enterprise.code_file" parent="1" vertex="1">
          <mxGeometry x="180" y="1400" width="49" height="50" as="geometry" />
        </mxCell>
        <mxCell id="mwGx68rkcpz4AwPUT-rU-50" value="" style="edgeStyle=orthogonalEdgeStyle;curved=1;rounded=0;orthogonalLoop=1;jettySize=auto;html=1;" parent="1" source="mwGx68rkcpz4AwPUT-rU-51" target="mwGx68rkcpz4AwPUT-rU-52" edge="1">
          <mxGeometry relative="1" as="geometry" />
        </mxCell>
        <mxCell id="mwGx68rkcpz4AwPUT-rU-51" value="models" style="rounded=0;whiteSpace=wrap;html=1;fillColor=#dae8fc;strokeColor=#6c8ebf;" parent="1" vertex="1">
          <mxGeometry x="320" y="1395" width="230" height="60" as="geometry" />
        </mxCell>
        <mxCell id="mwGx68rkcpz4AwPUT-rU-52" value="user.go" style="sketch=0;aspect=fixed;pointerEvents=1;shadow=0;dashed=0;html=1;strokeColor=none;labelPosition=center;verticalLabelPosition=bottom;verticalAlign=top;align=center;fillColor=#00188D;shape=mxgraph.mscae.enterprise.code_file" parent="1" vertex="1">
          <mxGeometry x="410.5" y="1520" width="49" height="50" as="geometry" />
        </mxCell>
        <mxCell id="mwGx68rkcpz4AwPUT-rU-53" value="&lt;div align=&quot;left&quot;&gt;&lt;ul&gt;&lt;li&gt;Request / Response structs&lt;/li&gt;&lt;li&gt;Mapping&lt;/li&gt;&lt;li&gt;Validation&lt;/li&gt;&lt;li&gt;Service calls&lt;/li&gt;&lt;/ul&gt;&lt;/div&gt;" style="text;html=1;align=left;verticalAlign=middle;whiteSpace=wrap;rounded=0;" parent="1" vertex="1">
          <mxGeometry x="540" y="1050" width="200" height="100" as="geometry" />
        </mxCell>
        <mxCell id="mwGx68rkcpz4AwPUT-rU-54" value="&lt;ul&gt;&lt;li&gt;Application packages may have more broad names / purposes.&lt;/li&gt;&lt;li&gt;Library packages typically have more fine grained names / purposes.&lt;/li&gt;&lt;/ul&gt;" style="text;html=1;align=left;verticalAlign=middle;whiteSpace=wrap;rounded=0;" parent="1" vertex="1">
          <mxGeometry x="540" y="920" width="460" height="100" as="geometry" />
        </mxCell>
        <mxCell id="mwGx68rkcpz4AwPUT-rU-55" value="&lt;ul&gt;&lt;li&gt;&quot;Business logic&quot;&lt;/li&gt;&lt;li&gt;Data persistence&lt;/li&gt;&lt;li&gt;Calling out to other systems&lt;/li&gt;&lt;/ul&gt;" style="text;html=1;align=left;verticalAlign=middle;whiteSpace=wrap;rounded=0;" parent="1" vertex="1">
          <mxGeometry x="540" y="1260" width="200" height="100" as="geometry" />
        </mxCell>
        <mxCell id="mwGx68rkcpz4AwPUT-rU-56" value="&lt;ul&gt;&lt;li&gt;Plain structs&lt;/li&gt;&lt;li&gt;Domain models&lt;/li&gt;&lt;li&gt;Struct tags for DB serialization&lt;br&gt;&lt;/li&gt;&lt;/ul&gt;" style="text;html=1;align=left;verticalAlign=middle;whiteSpace=wrap;rounded=0;" parent="1" vertex="1">
          <mxGeometry x="540" y="1375" width="200" height="100" as="geometry" />
        </mxCell>
        <mxCell id="mwGx68rkcpz4AwPUT-rU-57" value="&lt;ul&gt;&lt;li&gt;cmd is a familiar pattern for organizing application entrypoints&lt;br&gt;&lt;/li&gt;&lt;/ul&gt;" style="text;html=1;align=left;verticalAlign=middle;whiteSpace=wrap;rounded=0;" parent="1" vertex="1">
          <mxGeometry x="550" y="580" width="460" height="100" as="geometry" />
        </mxCell>
        <mxCell id="mwGx68rkcpz4AwPUT-rU-58" value="&lt;ul&gt;&lt;li&gt;Dependency initialization&lt;/li&gt;&lt;li&gt;Calls lambda runtime to register our handler&lt;/li&gt;&lt;li&gt;No other logic&lt;br&gt;&lt;/li&gt;&lt;/ul&gt;" style="text;html=1;align=left;verticalAlign=middle;whiteSpace=wrap;rounded=0;" parent="1" vertex="1">
          <mxGeometry x="550" y="795" width="460" height="100" as="geometry" />
        </mxCell>
        <mxCell id="mwGx68rkcpz4AwPUT-rU-59" value="gorm.io/gorm" style="rounded=0;whiteSpace=wrap;html=1;fillColor=#f8cecc;strokeColor=#b85450;dashed=1;" parent="1" vertex="1">
          <mxGeometry x="-140" y="1395" width="230" height="60" as="geometry" />
        </mxCell>
        <mxCell id="mwGx68rkcpz4AwPUT-rU-60" value="gorm.go" style="sketch=0;aspect=fixed;pointerEvents=1;shadow=0;dashed=0;html=1;strokeColor=none;labelPosition=center;verticalLabelPosition=bottom;verticalAlign=top;align=center;fillColor=#00188D;shape=mxgraph.mscae.enterprise.code_file" parent="1" vertex="1">
          <mxGeometry x="-49.5" y="1520" width="49" height="50" as="geometry" />
        </mxCell>
        <mxCell id="mwGx68rkcpz4AwPUT-rU-61" style="edgeStyle=orthogonalEdgeStyle;curved=1;rounded=0;orthogonalLoop=1;jettySize=auto;html=1;entryX=0.5;entryY=0;entryDx=0;entryDy=0;entryPerimeter=0;" parent="1" source="mwGx68rkcpz4AwPUT-rU-59" target="mwGx68rkcpz4AwPUT-rU-60" edge="1">
          <mxGeometry relative="1" as="geometry" />
        </mxCell>
      </root>
    </mxGraphModel>
  </diagram>
  <diagram name="Multi Lambda" id="tOz_3NYLXj4VJINuFUCw">
    <mxGraphModel dx="2353" dy="822" grid="1" gridSize="10" guides="1" tooltips="1" connect="1" arrows="1" fold="1" page="1" pageScale="1" pageWidth="850" pageHeight="1100" math="0" shadow="0">
      <root>
        <mxCell id="0" />
        <mxCell id="1" parent="0" />
        <mxCell id="Oh2Y_1QA2fs_ReZElOh2-11" style="edgeStyle=orthogonalEdgeStyle;curved=1;rounded=0;orthogonalLoop=1;jettySize=auto;html=1;entryX=0.5;entryY=0;entryDx=0;entryDy=0;" parent="1" source="Oh2Y_1QA2fs_ReZElOh2-1" target="Oh2Y_1QA2fs_ReZElOh2-2" edge="1">
          <mxGeometry relative="1" as="geometry" />
        </mxCell>
        <mxCell id="Oh2Y_1QA2fs_ReZElOh2-20" value="POST /users" style="edgeLabel;html=1;align=center;verticalAlign=middle;resizable=0;points=[];" parent="Oh2Y_1QA2fs_ReZElOh2-11" vertex="1" connectable="0">
          <mxGeometry x="0.0716" y="2" relative="1" as="geometry">
            <mxPoint x="-51" y="8" as="offset" />
          </mxGeometry>
        </mxCell>
        <mxCell id="Oh2Y_1QA2fs_ReZElOh2-12" style="edgeStyle=orthogonalEdgeStyle;curved=1;rounded=0;orthogonalLoop=1;jettySize=auto;html=1;exitX=0.5;exitY=1;exitDx=0;exitDy=0;entryX=0.5;entryY=0;entryDx=0;entryDy=0;" parent="1" source="Oh2Y_1QA2fs_ReZElOh2-1" target="Oh2Y_1QA2fs_ReZElOh2-4" edge="1">
          <mxGeometry relative="1" as="geometry" />
        </mxCell>
        <mxCell id="Oh2Y_1QA2fs_ReZElOh2-21" value="GET /users/{id}" style="edgeLabel;html=1;align=center;verticalAlign=middle;resizable=0;points=[];" parent="Oh2Y_1QA2fs_ReZElOh2-12" vertex="1" connectable="0">
          <mxGeometry x="0.6492" y="6" relative="1" as="geometry">
            <mxPoint y="-5" as="offset" />
          </mxGeometry>
        </mxCell>
        <mxCell id="Oh2Y_1QA2fs_ReZElOh2-13" style="edgeStyle=orthogonalEdgeStyle;curved=1;rounded=0;orthogonalLoop=1;jettySize=auto;html=1;exitX=0.5;exitY=1;exitDx=0;exitDy=0;entryX=0.5;entryY=0;entryDx=0;entryDy=0;" parent="1" source="Oh2Y_1QA2fs_ReZElOh2-1" target="Oh2Y_1QA2fs_ReZElOh2-6" edge="1">
          <mxGeometry relative="1" as="geometry" />
        </mxCell>
        <mxCell id="Oh2Y_1QA2fs_ReZElOh2-22" value="PUT /users/{id}" style="edgeLabel;html=1;align=center;verticalAlign=middle;resizable=0;points=[];" parent="Oh2Y_1QA2fs_ReZElOh2-13" vertex="1" connectable="0">
          <mxGeometry x="0.6099" y="-4" relative="1" as="geometry">
            <mxPoint y="-2" as="offset" />
          </mxGeometry>
        </mxCell>
        <mxCell id="Oh2Y_1QA2fs_ReZElOh2-14" style="edgeStyle=orthogonalEdgeStyle;curved=1;rounded=0;orthogonalLoop=1;jettySize=auto;html=1;entryX=0.5;entryY=0;entryDx=0;entryDy=0;" parent="1" source="Oh2Y_1QA2fs_ReZElOh2-1" target="Oh2Y_1QA2fs_ReZElOh2-8" edge="1">
          <mxGeometry relative="1" as="geometry" />
        </mxCell>
        <mxCell id="Oh2Y_1QA2fs_ReZElOh2-23" value="DELETE /users/{id}" style="edgeLabel;html=1;align=center;verticalAlign=middle;resizable=0;points=[];" parent="Oh2Y_1QA2fs_ReZElOh2-14" vertex="1" connectable="0">
          <mxGeometry x="0.3316" y="-4" relative="1" as="geometry">
            <mxPoint x="37" y="6" as="offset" />
          </mxGeometry>
        </mxCell>
        <mxCell id="Oh2Y_1QA2fs_ReZElOh2-1" value="API Gateway" style="rounded=0;whiteSpace=wrap;html=1;" parent="1" vertex="1">
          <mxGeometry x="100" y="310" width="440" height="60" as="geometry" />
        </mxCell>
        <mxCell id="Oh2Y_1QA2fs_ReZElOh2-2" value="" style="whiteSpace=wrap;html=1;aspect=fixed;" parent="1" vertex="1">
          <mxGeometry x="100" y="450" width="80" height="80" as="geometry" />
        </mxCell>
        <mxCell id="Oh2Y_1QA2fs_ReZElOh2-3" value="" style="sketch=0;points=[[0,0,0],[0.25,0,0],[0.5,0,0],[0.75,0,0],[1,0,0],[0,1,0],[0.25,1,0],[0.5,1,0],[0.75,1,0],[1,1,0],[0,0.25,0],[0,0.5,0],[0,0.75,0],[1,0.25,0],[1,0.5,0],[1,0.75,0]];outlineConnect=0;fontColor=#232F3E;fillColor=#ED7100;strokeColor=#ffffff;dashed=0;verticalLabelPosition=bottom;verticalAlign=top;align=center;html=1;fontSize=12;fontStyle=0;aspect=fixed;shape=mxgraph.aws4.resourceIcon;resIcon=mxgraph.aws4.lambda;" parent="1" vertex="1">
          <mxGeometry x="115" y="465" width="50" height="50" as="geometry" />
        </mxCell>
        <mxCell id="Oh2Y_1QA2fs_ReZElOh2-4" value="" style="whiteSpace=wrap;html=1;aspect=fixed;" parent="1" vertex="1">
          <mxGeometry x="220" y="450" width="80" height="80" as="geometry" />
        </mxCell>
        <mxCell id="Oh2Y_1QA2fs_ReZElOh2-5" value="" style="sketch=0;points=[[0,0,0],[0.25,0,0],[0.5,0,0],[0.75,0,0],[1,0,0],[0,1,0],[0.25,1,0],[0.5,1,0],[0.75,1,0],[1,1,0],[0,0.25,0],[0,0.5,0],[0,0.75,0],[1,0.25,0],[1,0.5,0],[1,0.75,0]];outlineConnect=0;fontColor=#232F3E;fillColor=#ED7100;strokeColor=#ffffff;dashed=0;verticalLabelPosition=bottom;verticalAlign=top;align=center;html=1;fontSize=12;fontStyle=0;aspect=fixed;shape=mxgraph.aws4.resourceIcon;resIcon=mxgraph.aws4.lambda;" parent="1" vertex="1">
          <mxGeometry x="235" y="465" width="50" height="50" as="geometry" />
        </mxCell>
        <mxCell id="Oh2Y_1QA2fs_ReZElOh2-6" value="" style="whiteSpace=wrap;html=1;aspect=fixed;" parent="1" vertex="1">
          <mxGeometry x="340" y="450" width="80" height="80" as="geometry" />
        </mxCell>
        <mxCell id="Oh2Y_1QA2fs_ReZElOh2-7" value="" style="sketch=0;points=[[0,0,0],[0.25,0,0],[0.5,0,0],[0.75,0,0],[1,0,0],[0,1,0],[0.25,1,0],[0.5,1,0],[0.75,1,0],[1,1,0],[0,0.25,0],[0,0.5,0],[0,0.75,0],[1,0.25,0],[1,0.5,0],[1,0.75,0]];outlineConnect=0;fontColor=#232F3E;fillColor=#ED7100;strokeColor=#ffffff;dashed=0;verticalLabelPosition=bottom;verticalAlign=top;align=center;html=1;fontSize=12;fontStyle=0;aspect=fixed;shape=mxgraph.aws4.resourceIcon;resIcon=mxgraph.aws4.lambda;" parent="1" vertex="1">
          <mxGeometry x="355" y="465" width="50" height="50" as="geometry" />
        </mxCell>
        <mxCell id="Oh2Y_1QA2fs_ReZElOh2-8" value="" style="whiteSpace=wrap;html=1;aspect=fixed;" parent="1" vertex="1">
          <mxGeometry x="460" y="450" width="80" height="80" as="geometry" />
        </mxCell>
        <mxCell id="Oh2Y_1QA2fs_ReZElOh2-9" value="" style="sketch=0;points=[[0,0,0],[0.25,0,0],[0.5,0,0],[0.75,0,0],[1,0,0],[0,1,0],[0.25,1,0],[0.5,1,0],[0.75,1,0],[1,1,0],[0,0.25,0],[0,0.5,0],[0,0.75,0],[1,0.25,0],[1,0.5,0],[1,0.75,0]];outlineConnect=0;fontColor=#232F3E;fillColor=#ED7100;strokeColor=#ffffff;dashed=0;verticalLabelPosition=bottom;verticalAlign=top;align=center;html=1;fontSize=12;fontStyle=0;aspect=fixed;shape=mxgraph.aws4.resourceIcon;resIcon=mxgraph.aws4.lambda;" parent="1" vertex="1">
          <mxGeometry x="475" y="465" width="50" height="50" as="geometry" />
        </mxCell>
        <mxCell id="Oh2Y_1QA2fs_ReZElOh2-33" style="edgeStyle=orthogonalEdgeStyle;curved=1;rounded=0;orthogonalLoop=1;jettySize=auto;html=1;" parent="1" source="Oh2Y_1QA2fs_ReZElOh2-15" target="Oh2Y_1QA2fs_ReZElOh2-24" edge="1">
          <mxGeometry relative="1" as="geometry" />
        </mxCell>
        <mxCell id="Oh2Y_1QA2fs_ReZElOh2-15" value="Create" style="text;html=1;align=center;verticalAlign=middle;resizable=0;points=[];autosize=1;strokeColor=none;fillColor=none;" parent="1" vertex="1">
          <mxGeometry x="110" y="530" width="60" height="30" as="geometry" />
        </mxCell>
        <mxCell id="Oh2Y_1QA2fs_ReZElOh2-16" value="Read" style="text;html=1;align=center;verticalAlign=middle;resizable=0;points=[];autosize=1;strokeColor=none;fillColor=none;" parent="1" vertex="1">
          <mxGeometry x="235" y="530" width="50" height="30" as="geometry" />
        </mxCell>
        <mxCell id="Oh2Y_1QA2fs_ReZElOh2-17" value="Update" style="text;html=1;align=center;verticalAlign=middle;resizable=0;points=[];autosize=1;strokeColor=none;fillColor=none;" parent="1" vertex="1">
          <mxGeometry x="350" y="530" width="60" height="30" as="geometry" />
        </mxCell>
        <mxCell id="Oh2Y_1QA2fs_ReZElOh2-18" value="Delete" style="text;html=1;align=center;verticalAlign=middle;resizable=0;points=[];autosize=1;strokeColor=none;fillColor=none;" parent="1" vertex="1">
          <mxGeometry x="470" y="530" width="60" height="30" as="geometry" />
        </mxCell>
        <mxCell id="Oh2Y_1QA2fs_ReZElOh2-19" value="User Microservice" style="text;html=1;align=center;verticalAlign=middle;resizable=0;points=[];autosize=1;strokeColor=none;fillColor=none;" parent="1" vertex="1">
          <mxGeometry x="260" y="260" width="120" height="30" as="geometry" />
        </mxCell>
        <mxCell id="Oh2Y_1QA2fs_ReZElOh2-62" style="edgeStyle=orthogonalEdgeStyle;curved=1;rounded=0;orthogonalLoop=1;jettySize=auto;html=1;exitX=0.5;exitY=1;exitDx=0;exitDy=0;entryX=0.5;entryY=0;entryDx=0;entryDy=0;" parent="1" source="Oh2Y_1QA2fs_ReZElOh2-24" target="Oh2Y_1QA2fs_ReZElOh2-54" edge="1">
          <mxGeometry relative="1" as="geometry" />
        </mxCell>
        <mxCell id="Oh2Y_1QA2fs_ReZElOh2-63" style="edgeStyle=orthogonalEdgeStyle;curved=1;rounded=0;orthogonalLoop=1;jettySize=auto;html=1;entryX=0.5;entryY=0;entryDx=0;entryDy=0;" parent="1" source="Oh2Y_1QA2fs_ReZElOh2-24" target="Oh2Y_1QA2fs_ReZElOh2-55" edge="1">
          <mxGeometry relative="1" as="geometry" />
        </mxCell>
        <mxCell id="Oh2Y_1QA2fs_ReZElOh2-64" style="edgeStyle=orthogonalEdgeStyle;curved=1;rounded=0;orthogonalLoop=1;jettySize=auto;html=1;entryX=0.5;entryY=0;entryDx=0;entryDy=0;" parent="1" source="Oh2Y_1QA2fs_ReZElOh2-24" target="Oh2Y_1QA2fs_ReZElOh2-57" edge="1">
          <mxGeometry relative="1" as="geometry" />
        </mxCell>
        <mxCell id="Oh2Y_1QA2fs_ReZElOh2-65" style="edgeStyle=orthogonalEdgeStyle;curved=1;rounded=0;orthogonalLoop=1;jettySize=auto;html=1;entryX=0.5;entryY=0;entryDx=0;entryDy=0;" parent="1" source="Oh2Y_1QA2fs_ReZElOh2-24" target="Oh2Y_1QA2fs_ReZElOh2-58" edge="1">
          <mxGeometry relative="1" as="geometry" />
        </mxCell>
        <mxCell id="Oh2Y_1QA2fs_ReZElOh2-24" value="cmd" style="rounded=0;whiteSpace=wrap;html=1;fillColor=#dae8fc;strokeColor=#6c8ebf;" parent="1" vertex="1">
          <mxGeometry x="90" y="600" width="450" height="60" as="geometry" />
        </mxCell>
        <mxCell id="Oh2Y_1QA2fs_ReZElOh2-48" style="edgeStyle=orthogonalEdgeStyle;curved=1;rounded=0;orthogonalLoop=1;jettySize=auto;html=1;entryX=0.5;entryY=0;entryDx=0;entryDy=0;" parent="1" source="Oh2Y_1QA2fs_ReZElOh2-30" target="Oh2Y_1QA2fs_ReZElOh2-46" edge="1">
          <mxGeometry relative="1" as="geometry" />
        </mxCell>
        <mxCell id="Oh2Y_1QA2fs_ReZElOh2-30" value="internal" style="rounded=0;whiteSpace=wrap;html=1;fillColor=#dae8fc;strokeColor=#6c8ebf;" parent="1" vertex="1">
          <mxGeometry x="90" y="940" width="450" height="60" as="geometry" />
        </mxCell>
        <mxCell id="Oh2Y_1QA2fs_ReZElOh2-73" value="" style="edgeStyle=orthogonalEdgeStyle;curved=1;rounded=0;orthogonalLoop=1;jettySize=auto;html=1;" parent="1" source="Oh2Y_1QA2fs_ReZElOh2-31" target="Oh2Y_1QA2fs_ReZElOh2-72" edge="1">
          <mxGeometry relative="1" as="geometry" />
        </mxCell>
        <mxCell id="Oh2Y_1QA2fs_ReZElOh2-31" value="services" style="rounded=0;whiteSpace=wrap;html=1;fillColor=#dae8fc;strokeColor=#6c8ebf;" parent="1" vertex="1">
          <mxGeometry x="90" y="1260" width="230" height="60" as="geometry" />
        </mxCell>
        <mxCell id="Oh2Y_1QA2fs_ReZElOh2-43" value="&lt;b&gt;Repo&lt;/b&gt; github.com/my-rad-organization/services/users&lt;br&gt;&lt;b&gt;Module&lt;/b&gt; github.com/my-rad-organization/services/users" style="text;html=1;align=center;verticalAlign=middle;resizable=0;points=[];autosize=1;strokeColor=none;fillColor=none;" parent="1" vertex="1">
          <mxGeometry x="160" y="185" width="320" height="40" as="geometry" />
        </mxCell>
        <mxCell id="Oh2Y_1QA2fs_ReZElOh2-70" value="" style="edgeStyle=orthogonalEdgeStyle;curved=1;rounded=0;orthogonalLoop=1;jettySize=auto;html=1;" parent="1" source="Oh2Y_1QA2fs_ReZElOh2-46" target="Oh2Y_1QA2fs_ReZElOh2-69" edge="1">
          <mxGeometry relative="1" as="geometry" />
        </mxCell>
        <mxCell id="Oh2Y_1QA2fs_ReZElOh2-46" value="handlers" style="rounded=0;whiteSpace=wrap;html=1;dashed=1;fillColor=#dae8fc;strokeColor=#6c8ebf;" parent="1" vertex="1">
          <mxGeometry x="90" y="1050" width="450" height="60" as="geometry" />
        </mxCell>
        <mxCell id="Oh2Y_1QA2fs_ReZElOh2-52" value="" style="shape=flexArrow;endArrow=classic;html=1;rounded=0;curved=1;" parent="1" edge="1">
          <mxGeometry width="50" height="50" relative="1" as="geometry">
            <mxPoint x="50" y="310" as="sourcePoint" />
            <mxPoint x="60" y="1350" as="targetPoint" />
          </mxGeometry>
        </mxCell>
        <mxCell id="Oh2Y_1QA2fs_ReZElOh2-67" style="edgeStyle=orthogonalEdgeStyle;curved=1;rounded=0;orthogonalLoop=1;jettySize=auto;html=1;" parent="1" source="Oh2Y_1QA2fs_ReZElOh2-53" target="Oh2Y_1QA2fs_ReZElOh2-30" edge="1">
          <mxGeometry relative="1" as="geometry" />
        </mxCell>
        <mxCell id="Oh2Y_1QA2fs_ReZElOh2-53" value="main.go" style="sketch=0;aspect=fixed;pointerEvents=1;shadow=0;dashed=0;html=1;strokeColor=none;labelPosition=center;verticalLabelPosition=bottom;verticalAlign=top;align=center;fillColor=#00188D;shape=mxgraph.mscae.enterprise.code_file" parent="1" vertex="1">
          <mxGeometry x="110.5" y="800" width="49" height="50" as="geometry" />
        </mxCell>
        <mxCell id="Oh2Y_1QA2fs_ReZElOh2-66" value="" style="edgeStyle=orthogonalEdgeStyle;curved=1;rounded=0;orthogonalLoop=1;jettySize=auto;html=1;" parent="1" source="Oh2Y_1QA2fs_ReZElOh2-54" target="Oh2Y_1QA2fs_ReZElOh2-53" edge="1">
          <mxGeometry relative="1" as="geometry" />
        </mxCell>
        <mxCell id="Oh2Y_1QA2fs_ReZElOh2-54" value="create" style="rounded=0;whiteSpace=wrap;html=1;fillColor=#dae8fc;strokeColor=#6c8ebf;" parent="1" vertex="1">
          <mxGeometry x="90" y="700" width="90" height="60" as="geometry" />
        </mxCell>
        <mxCell id="Oh2Y_1QA2fs_ReZElOh2-55" value="read" style="rounded=0;whiteSpace=wrap;html=1;fillColor=#dae8fc;strokeColor=#6c8ebf;" parent="1" vertex="1">
          <mxGeometry x="210" y="700" width="90" height="60" as="geometry" />
        </mxCell>
        <mxCell id="Oh2Y_1QA2fs_ReZElOh2-57" value="update" style="rounded=0;whiteSpace=wrap;html=1;fillColor=#dae8fc;strokeColor=#6c8ebf;" parent="1" vertex="1">
          <mxGeometry x="330" y="700" width="90" height="60" as="geometry" />
        </mxCell>
        <mxCell id="Oh2Y_1QA2fs_ReZElOh2-58" value="delete" style="rounded=0;whiteSpace=wrap;html=1;fillColor=#dae8fc;strokeColor=#6c8ebf;" parent="1" vertex="1">
          <mxGeometry x="450" y="700" width="90" height="60" as="geometry" />
        </mxCell>
        <mxCell id="Oh2Y_1QA2fs_ReZElOh2-71" value="" style="edgeStyle=orthogonalEdgeStyle;curved=1;rounded=0;orthogonalLoop=1;jettySize=auto;html=1;" parent="1" source="Oh2Y_1QA2fs_ReZElOh2-69" target="Oh2Y_1QA2fs_ReZElOh2-31" edge="1">
          <mxGeometry relative="1" as="geometry" />
        </mxCell>
        <mxCell id="Oh2Y_1QA2fs_ReZElOh2-79" style="edgeStyle=orthogonalEdgeStyle;curved=1;rounded=0;orthogonalLoop=1;jettySize=auto;html=1;exitX=1;exitY=0.5;exitDx=0;exitDy=0;exitPerimeter=0;entryX=0.5;entryY=0;entryDx=0;entryDy=0;" parent="1" source="Oh2Y_1QA2fs_ReZElOh2-69" target="Oh2Y_1QA2fs_ReZElOh2-74" edge="1">
          <mxGeometry relative="1" as="geometry" />
        </mxCell>
        <mxCell id="Oh2Y_1QA2fs_ReZElOh2-69" value="create_user.go" style="sketch=0;aspect=fixed;pointerEvents=1;shadow=0;dashed=0;html=1;strokeColor=none;labelPosition=center;verticalLabelPosition=bottom;verticalAlign=top;align=center;fillColor=#00188D;shape=mxgraph.mscae.enterprise.code_file" parent="1" vertex="1">
          <mxGeometry x="290.5" y="1150" width="49" height="50" as="geometry" />
        </mxCell>
        <mxCell id="Oh2Y_1QA2fs_ReZElOh2-77" style="edgeStyle=orthogonalEdgeStyle;curved=1;rounded=0;orthogonalLoop=1;jettySize=auto;html=1;entryX=0;entryY=0.5;entryDx=0;entryDy=0;" parent="1" source="Oh2Y_1QA2fs_ReZElOh2-72" target="Oh2Y_1QA2fs_ReZElOh2-74" edge="1">
          <mxGeometry relative="1" as="geometry" />
        </mxCell>
        <mxCell id="Oh2Y_1QA2fs_ReZElOh2-89" style="edgeStyle=orthogonalEdgeStyle;curved=1;rounded=0;orthogonalLoop=1;jettySize=auto;html=1;entryX=1;entryY=0.5;entryDx=0;entryDy=0;" parent="1" source="Oh2Y_1QA2fs_ReZElOh2-72" target="Oh2Y_1QA2fs_ReZElOh2-87" edge="1">
          <mxGeometry relative="1" as="geometry" />
        </mxCell>
        <mxCell id="Oh2Y_1QA2fs_ReZElOh2-72" value="user.go" style="sketch=0;aspect=fixed;pointerEvents=1;shadow=0;dashed=0;html=1;strokeColor=none;labelPosition=center;verticalLabelPosition=bottom;verticalAlign=top;align=center;fillColor=#00188D;shape=mxgraph.mscae.enterprise.code_file" parent="1" vertex="1">
          <mxGeometry x="180" y="1380" width="49" height="50" as="geometry" />
        </mxCell>
        <mxCell id="Oh2Y_1QA2fs_ReZElOh2-78" value="" style="edgeStyle=orthogonalEdgeStyle;curved=1;rounded=0;orthogonalLoop=1;jettySize=auto;html=1;" parent="1" source="Oh2Y_1QA2fs_ReZElOh2-74" target="Oh2Y_1QA2fs_ReZElOh2-75" edge="1">
          <mxGeometry relative="1" as="geometry" />
        </mxCell>
        <mxCell id="Oh2Y_1QA2fs_ReZElOh2-74" value="models" style="rounded=0;whiteSpace=wrap;html=1;fillColor=#dae8fc;strokeColor=#6c8ebf;" parent="1" vertex="1">
          <mxGeometry x="320" y="1375" width="230" height="60" as="geometry" />
        </mxCell>
        <mxCell id="Oh2Y_1QA2fs_ReZElOh2-75" value="user.go" style="sketch=0;aspect=fixed;pointerEvents=1;shadow=0;dashed=0;html=1;strokeColor=none;labelPosition=center;verticalLabelPosition=bottom;verticalAlign=top;align=center;fillColor=#00188D;shape=mxgraph.mscae.enterprise.code_file" parent="1" vertex="1">
          <mxGeometry x="410.5" y="1500" width="49" height="50" as="geometry" />
        </mxCell>
        <mxCell id="Oh2Y_1QA2fs_ReZElOh2-80" value="&lt;div align=&quot;left&quot;&gt;&lt;ul&gt;&lt;li&gt;Request / Response structs&lt;/li&gt;&lt;li&gt;Mapping&lt;/li&gt;&lt;li&gt;Validation&lt;/li&gt;&lt;li&gt;Service calls&lt;/li&gt;&lt;/ul&gt;&lt;/div&gt;" style="text;html=1;align=left;verticalAlign=middle;whiteSpace=wrap;rounded=0;" parent="1" vertex="1">
          <mxGeometry x="540" y="1030" width="200" height="100" as="geometry" />
        </mxCell>
        <mxCell id="Oh2Y_1QA2fs_ReZElOh2-81" value="&lt;ul&gt;&lt;li&gt;Application packages may have more broad names / purposes.&lt;/li&gt;&lt;li&gt;Library packages typically have more fine grained names / purposes.&lt;/li&gt;&lt;/ul&gt;" style="text;html=1;align=left;verticalAlign=middle;whiteSpace=wrap;rounded=0;" parent="1" vertex="1">
          <mxGeometry x="540" y="920" width="460" height="100" as="geometry" />
        </mxCell>
        <mxCell id="Oh2Y_1QA2fs_ReZElOh2-82" value="&lt;ul&gt;&lt;li&gt;&quot;Business logic&quot;&lt;/li&gt;&lt;li&gt;Data persistence&lt;/li&gt;&lt;li&gt;Calling out to other systems&lt;/li&gt;&lt;/ul&gt;" style="text;html=1;align=left;verticalAlign=middle;whiteSpace=wrap;rounded=0;" parent="1" vertex="1">
          <mxGeometry x="540" y="1240" width="200" height="100" as="geometry" />
        </mxCell>
        <mxCell id="Oh2Y_1QA2fs_ReZElOh2-83" value="&lt;ul&gt;&lt;li&gt;Plain structs&lt;/li&gt;&lt;li&gt;Domain models&lt;/li&gt;&lt;li&gt;Struct tags for DB serialization&lt;br&gt;&lt;/li&gt;&lt;/ul&gt;" style="text;html=1;align=left;verticalAlign=middle;whiteSpace=wrap;rounded=0;" parent="1" vertex="1">
          <mxGeometry x="540" y="1355" width="200" height="100" as="geometry" />
        </mxCell>
        <mxCell id="Oh2Y_1QA2fs_ReZElOh2-84" value="&lt;ul&gt;&lt;li&gt;cmd makes it obvious there are multiple executables&lt;/li&gt;&lt;li&gt;In a Lambda architecture, we&#39;ll likely have multiple discrete executables&lt;br&gt;&lt;/li&gt;&lt;/ul&gt;" style="text;html=1;align=left;verticalAlign=middle;whiteSpace=wrap;rounded=0;" parent="1" vertex="1">
          <mxGeometry x="550" y="580" width="460" height="100" as="geometry" />
        </mxCell>
        <mxCell id="Oh2Y_1QA2fs_ReZElOh2-85" value="&lt;ul&gt;&lt;li&gt;Dependency initialization&lt;/li&gt;&lt;li&gt;Calls lambda runtime to register handler&lt;/li&gt;&lt;li&gt;No other logic&lt;br&gt;&lt;/li&gt;&lt;/ul&gt;" style="text;html=1;align=left;verticalAlign=middle;whiteSpace=wrap;rounded=0;" parent="1" vertex="1">
          <mxGeometry x="550" y="775" width="460" height="100" as="geometry" />
        </mxCell>
        <mxCell id="Oh2Y_1QA2fs_ReZElOh2-87" value="gorm.io/gorm" style="rounded=0;whiteSpace=wrap;html=1;fillColor=#f8cecc;strokeColor=#b85450;dashed=1;" parent="1" vertex="1">
          <mxGeometry x="-140" y="1375" width="230" height="60" as="geometry" />
        </mxCell>
        <mxCell id="Oh2Y_1QA2fs_ReZElOh2-88" value="gorm.go" style="sketch=0;aspect=fixed;pointerEvents=1;shadow=0;dashed=0;html=1;strokeColor=none;labelPosition=center;verticalLabelPosition=bottom;verticalAlign=top;align=center;fillColor=#00188D;shape=mxgraph.mscae.enterprise.code_file" parent="1" vertex="1">
          <mxGeometry x="-49.5" y="1495" width="49" height="50" as="geometry" />
        </mxCell>
        <mxCell id="Oh2Y_1QA2fs_ReZElOh2-90" style="edgeStyle=orthogonalEdgeStyle;curved=1;rounded=0;orthogonalLoop=1;jettySize=auto;html=1;entryX=0.5;entryY=0;entryDx=0;entryDy=0;entryPerimeter=0;" parent="1" source="Oh2Y_1QA2fs_ReZElOh2-87" target="Oh2Y_1QA2fs_ReZElOh2-88" edge="1">
          <mxGeometry relative="1" as="geometry" />
        </mxCell>
      </root>
    </mxGraphModel>
  </diagram>
  <diagram name="Monolithic Lambda / API" id="Vvyxj11Ns1G-_zolGqcl">
    <mxGraphModel dx="2353" dy="822" grid="1" gridSize="10" guides="1" tooltips="1" connect="1" arrows="1" fold="1" page="1" pageScale="1" pageWidth="850" pageHeight="1100" math="0" shadow="0">
      <root>
        <mxCell id="pw79kQl3bYv7xJwIm6q7-0" />
        <mxCell id="pw79kQl3bYv7xJwIm6q7-1" parent="pw79kQl3bYv7xJwIm6q7-0" />
        <mxCell id="uukCEqzcJxdAy9QWSZ3O-7" style="edgeStyle=orthogonalEdgeStyle;curved=1;rounded=0;orthogonalLoop=1;jettySize=auto;html=1;" parent="pw79kQl3bYv7xJwIm6q7-1" source="pw79kQl3bYv7xJwIm6q7-10" target="pw79kQl3bYv7xJwIm6q7-11" edge="1">
          <mxGeometry relative="1" as="geometry" />
        </mxCell>
        <mxCell id="uukCEqzcJxdAy9QWSZ3O-8" style="edgeStyle=orthogonalEdgeStyle;curved=1;rounded=0;orthogonalLoop=1;jettySize=auto;html=1;" parent="pw79kQl3bYv7xJwIm6q7-1" source="pw79kQl3bYv7xJwIm6q7-10" target="uukCEqzcJxdAy9QWSZ3O-3" edge="1">
          <mxGeometry relative="1" as="geometry" />
        </mxCell>
        <mxCell id="pw79kQl3bYv7xJwIm6q7-10" value="API Gateway" style="rounded=0;whiteSpace=wrap;html=1;" parent="pw79kQl3bYv7xJwIm6q7-1" vertex="1">
          <mxGeometry x="100" y="310" width="440" height="60" as="geometry" />
        </mxCell>
        <mxCell id="pw79kQl3bYv7xJwIm6q7-11" value="" style="whiteSpace=wrap;html=1;aspect=fixed;" parent="pw79kQl3bYv7xJwIm6q7-1" vertex="1">
          <mxGeometry x="130" y="450" width="80" height="80" as="geometry" />
        </mxCell>
        <mxCell id="pw79kQl3bYv7xJwIm6q7-12" value="" style="sketch=0;points=[[0,0,0],[0.25,0,0],[0.5,0,0],[0.75,0,0],[1,0,0],[0,1,0],[0.25,1,0],[0.5,1,0],[0.75,1,0],[1,1,0],[0,0.25,0],[0,0.5,0],[0,0.75,0],[1,0.25,0],[1,0.5,0],[1,0.75,0]];outlineConnect=0;fontColor=#232F3E;fillColor=#ED7100;strokeColor=#ffffff;dashed=0;verticalLabelPosition=bottom;verticalAlign=top;align=center;html=1;fontSize=12;fontStyle=0;aspect=fixed;shape=mxgraph.aws4.resourceIcon;resIcon=mxgraph.aws4.lambda;" parent="pw79kQl3bYv7xJwIm6q7-1" vertex="1">
          <mxGeometry x="145" y="465" width="50" height="50" as="geometry" />
        </mxCell>
        <mxCell id="pw79kQl3bYv7xJwIm6q7-13" style="edgeStyle=orthogonalEdgeStyle;curved=1;rounded=0;orthogonalLoop=1;jettySize=auto;html=1;" parent="pw79kQl3bYv7xJwIm6q7-1" source="pw79kQl3bYv7xJwIm6q7-14" target="pw79kQl3bYv7xJwIm6q7-17" edge="1">
          <mxGeometry relative="1" as="geometry" />
        </mxCell>
        <mxCell id="pw79kQl3bYv7xJwIm6q7-14" value="Lambda" style="text;html=1;align=center;verticalAlign=middle;resizable=0;points=[];autosize=1;strokeColor=none;fillColor=none;" parent="pw79kQl3bYv7xJwIm6q7-1" vertex="1">
          <mxGeometry x="135" y="530" width="70" height="30" as="geometry" />
        </mxCell>
        <mxCell id="pw79kQl3bYv7xJwIm6q7-15" value="User Microservice" style="text;html=1;align=center;verticalAlign=middle;resizable=0;points=[];autosize=1;strokeColor=none;fillColor=none;" parent="pw79kQl3bYv7xJwIm6q7-1" vertex="1">
          <mxGeometry x="260" y="260" width="120" height="30" as="geometry" />
        </mxCell>
        <mxCell id="pw79kQl3bYv7xJwIm6q7-16" style="edgeStyle=orthogonalEdgeStyle;curved=1;rounded=0;orthogonalLoop=1;jettySize=auto;html=1;exitX=0.5;exitY=1;exitDx=0;exitDy=0;entryX=0.5;entryY=0;entryDx=0;entryDy=0;" parent="pw79kQl3bYv7xJwIm6q7-1" source="pw79kQl3bYv7xJwIm6q7-17" target="pw79kQl3bYv7xJwIm6q7-29" edge="1">
          <mxGeometry relative="1" as="geometry" />
        </mxCell>
        <mxCell id="uukCEqzcJxdAy9QWSZ3O-10" style="edgeStyle=orthogonalEdgeStyle;curved=1;rounded=0;orthogonalLoop=1;jettySize=auto;html=1;entryX=0.5;entryY=0;entryDx=0;entryDy=0;" parent="pw79kQl3bYv7xJwIm6q7-1" source="pw79kQl3bYv7xJwIm6q7-17" target="uukCEqzcJxdAy9QWSZ3O-2" edge="1">
          <mxGeometry relative="1" as="geometry" />
        </mxCell>
        <mxCell id="pw79kQl3bYv7xJwIm6q7-17" value="cmd" style="rounded=0;whiteSpace=wrap;html=1;fillColor=#dae8fc;strokeColor=#6c8ebf;" parent="pw79kQl3bYv7xJwIm6q7-1" vertex="1">
          <mxGeometry x="90" y="600" width="450" height="60" as="geometry" />
        </mxCell>
        <mxCell id="pw79kQl3bYv7xJwIm6q7-18" value="" style="edgeStyle=orthogonalEdgeStyle;curved=1;rounded=0;orthogonalLoop=1;jettySize=auto;html=1;" parent="pw79kQl3bYv7xJwIm6q7-1" source="pw79kQl3bYv7xJwIm6q7-19" target="pw79kQl3bYv7xJwIm6q7-49" edge="1">
          <mxGeometry relative="1" as="geometry" />
        </mxCell>
        <mxCell id="pw79kQl3bYv7xJwIm6q7-19" value="internal" style="rounded=0;whiteSpace=wrap;html=1;fillColor=#dae8fc;strokeColor=#6c8ebf;" parent="pw79kQl3bYv7xJwIm6q7-1" vertex="1">
          <mxGeometry x="90" y="940" width="450" height="60" as="geometry" />
        </mxCell>
        <mxCell id="pw79kQl3bYv7xJwIm6q7-20" value="" style="edgeStyle=orthogonalEdgeStyle;curved=1;rounded=0;orthogonalLoop=1;jettySize=auto;html=1;" parent="pw79kQl3bYv7xJwIm6q7-1" source="pw79kQl3bYv7xJwIm6q7-21" target="pw79kQl3bYv7xJwIm6q7-35" edge="1">
          <mxGeometry relative="1" as="geometry" />
        </mxCell>
        <mxCell id="pw79kQl3bYv7xJwIm6q7-21" value="services" style="rounded=0;whiteSpace=wrap;html=1;fillColor=#dae8fc;strokeColor=#6c8ebf;" parent="pw79kQl3bYv7xJwIm6q7-1" vertex="1">
          <mxGeometry x="90" y="1460" width="230" height="60" as="geometry" />
        </mxCell>
        <mxCell id="pw79kQl3bYv7xJwIm6q7-22" value="&lt;b&gt;Repo&lt;/b&gt; github.com/my-rad-organization/services/users&lt;br&gt;&lt;b&gt;Module&lt;/b&gt; github.com/my-rad-organization/services/users" style="text;html=1;align=center;verticalAlign=middle;resizable=0;points=[];autosize=1;strokeColor=none;fillColor=none;" parent="pw79kQl3bYv7xJwIm6q7-1" vertex="1">
          <mxGeometry x="160" y="185" width="320" height="40" as="geometry" />
        </mxCell>
        <mxCell id="pw79kQl3bYv7xJwIm6q7-23" value="" style="edgeStyle=orthogonalEdgeStyle;curved=1;rounded=0;orthogonalLoop=1;jettySize=auto;html=1;" parent="pw79kQl3bYv7xJwIm6q7-1" source="pw79kQl3bYv7xJwIm6q7-24" target="pw79kQl3bYv7xJwIm6q7-32" edge="1">
          <mxGeometry relative="1" as="geometry" />
        </mxCell>
        <mxCell id="pw79kQl3bYv7xJwIm6q7-24" value="handlers" style="rounded=0;whiteSpace=wrap;html=1;dashed=1;fillColor=#dae8fc;strokeColor=#6c8ebf;" parent="pw79kQl3bYv7xJwIm6q7-1" vertex="1">
          <mxGeometry x="90" y="1250" width="450" height="60" as="geometry" />
        </mxCell>
        <mxCell id="pw79kQl3bYv7xJwIm6q7-25" value="" style="shape=flexArrow;endArrow=classic;html=1;rounded=0;curved=1;" parent="pw79kQl3bYv7xJwIm6q7-1" edge="1">
          <mxGeometry width="50" height="50" relative="1" as="geometry">
            <mxPoint x="50" y="310" as="sourcePoint" />
            <mxPoint x="60" y="1530" as="targetPoint" />
          </mxGeometry>
        </mxCell>
        <mxCell id="pw79kQl3bYv7xJwIm6q7-26" style="edgeStyle=orthogonalEdgeStyle;curved=1;rounded=0;orthogonalLoop=1;jettySize=auto;html=1;" parent="pw79kQl3bYv7xJwIm6q7-1" source="pw79kQl3bYv7xJwIm6q7-27" target="pw79kQl3bYv7xJwIm6q7-19" edge="1">
          <mxGeometry relative="1" as="geometry" />
        </mxCell>
        <mxCell id="pw79kQl3bYv7xJwIm6q7-27" value="main.go" style="sketch=0;aspect=fixed;pointerEvents=1;shadow=0;dashed=0;html=1;strokeColor=none;labelPosition=center;verticalLabelPosition=bottom;verticalAlign=top;align=center;fillColor=#00188D;shape=mxgraph.mscae.enterprise.code_file" parent="pw79kQl3bYv7xJwIm6q7-1" vertex="1">
          <mxGeometry x="159.5" y="830" width="49" height="50" as="geometry" />
        </mxCell>
        <mxCell id="pw79kQl3bYv7xJwIm6q7-28" value="" style="edgeStyle=orthogonalEdgeStyle;curved=1;rounded=0;orthogonalLoop=1;jettySize=auto;html=1;" parent="pw79kQl3bYv7xJwIm6q7-1" source="pw79kQl3bYv7xJwIm6q7-29" target="pw79kQl3bYv7xJwIm6q7-27" edge="1">
          <mxGeometry relative="1" as="geometry" />
        </mxCell>
        <mxCell id="pw79kQl3bYv7xJwIm6q7-29" value="lambda" style="rounded=0;whiteSpace=wrap;html=1;fillColor=#dae8fc;strokeColor=#6c8ebf;" parent="pw79kQl3bYv7xJwIm6q7-1" vertex="1">
          <mxGeometry x="139" y="720" width="90" height="60" as="geometry" />
        </mxCell>
        <mxCell id="pw79kQl3bYv7xJwIm6q7-30" value="" style="edgeStyle=orthogonalEdgeStyle;curved=1;rounded=0;orthogonalLoop=1;jettySize=auto;html=1;" parent="pw79kQl3bYv7xJwIm6q7-1" source="pw79kQl3bYv7xJwIm6q7-32" target="pw79kQl3bYv7xJwIm6q7-21" edge="1">
          <mxGeometry relative="1" as="geometry" />
        </mxCell>
        <mxCell id="pw79kQl3bYv7xJwIm6q7-31" style="edgeStyle=orthogonalEdgeStyle;curved=1;rounded=0;orthogonalLoop=1;jettySize=auto;html=1;exitX=1;exitY=0.5;exitDx=0;exitDy=0;exitPerimeter=0;entryX=0.5;entryY=0;entryDx=0;entryDy=0;" parent="pw79kQl3bYv7xJwIm6q7-1" source="pw79kQl3bYv7xJwIm6q7-32" target="pw79kQl3bYv7xJwIm6q7-37" edge="1">
          <mxGeometry relative="1" as="geometry" />
        </mxCell>
        <mxCell id="pw79kQl3bYv7xJwIm6q7-32" value="create_user.go" style="sketch=0;aspect=fixed;pointerEvents=1;shadow=0;dashed=0;html=1;strokeColor=none;labelPosition=center;verticalLabelPosition=bottom;verticalAlign=top;align=center;fillColor=#00188D;shape=mxgraph.mscae.enterprise.code_file" parent="pw79kQl3bYv7xJwIm6q7-1" vertex="1">
          <mxGeometry x="290.5" y="1350" width="49" height="50" as="geometry" />
        </mxCell>
        <mxCell id="pw79kQl3bYv7xJwIm6q7-33" style="edgeStyle=orthogonalEdgeStyle;curved=1;rounded=0;orthogonalLoop=1;jettySize=auto;html=1;entryX=0;entryY=0.5;entryDx=0;entryDy=0;" parent="pw79kQl3bYv7xJwIm6q7-1" source="pw79kQl3bYv7xJwIm6q7-35" target="pw79kQl3bYv7xJwIm6q7-37" edge="1">
          <mxGeometry relative="1" as="geometry" />
        </mxCell>
        <mxCell id="pw79kQl3bYv7xJwIm6q7-34" style="edgeStyle=orthogonalEdgeStyle;curved=1;rounded=0;orthogonalLoop=1;jettySize=auto;html=1;entryX=1;entryY=0.5;entryDx=0;entryDy=0;" parent="pw79kQl3bYv7xJwIm6q7-1" source="pw79kQl3bYv7xJwIm6q7-35" target="pw79kQl3bYv7xJwIm6q7-45" edge="1">
          <mxGeometry relative="1" as="geometry" />
        </mxCell>
        <mxCell id="pw79kQl3bYv7xJwIm6q7-35" value="user.go" style="sketch=0;aspect=fixed;pointerEvents=1;shadow=0;dashed=0;html=1;strokeColor=none;labelPosition=center;verticalLabelPosition=bottom;verticalAlign=top;align=center;fillColor=#00188D;shape=mxgraph.mscae.enterprise.code_file" parent="pw79kQl3bYv7xJwIm6q7-1" vertex="1">
          <mxGeometry x="180" y="1580" width="49" height="50" as="geometry" />
        </mxCell>
        <mxCell id="pw79kQl3bYv7xJwIm6q7-36" value="" style="edgeStyle=orthogonalEdgeStyle;curved=1;rounded=0;orthogonalLoop=1;jettySize=auto;html=1;" parent="pw79kQl3bYv7xJwIm6q7-1" source="pw79kQl3bYv7xJwIm6q7-37" target="pw79kQl3bYv7xJwIm6q7-38" edge="1">
          <mxGeometry relative="1" as="geometry" />
        </mxCell>
        <mxCell id="pw79kQl3bYv7xJwIm6q7-37" value="models" style="rounded=0;whiteSpace=wrap;html=1;fillColor=#dae8fc;strokeColor=#6c8ebf;" parent="pw79kQl3bYv7xJwIm6q7-1" vertex="1">
          <mxGeometry x="320" y="1575" width="230" height="60" as="geometry" />
        </mxCell>
        <mxCell id="pw79kQl3bYv7xJwIm6q7-38" value="user.go" style="sketch=0;aspect=fixed;pointerEvents=1;shadow=0;dashed=0;html=1;strokeColor=none;labelPosition=center;verticalLabelPosition=bottom;verticalAlign=top;align=center;fillColor=#00188D;shape=mxgraph.mscae.enterprise.code_file" parent="pw79kQl3bYv7xJwIm6q7-1" vertex="1">
          <mxGeometry x="410.5" y="1700" width="49" height="50" as="geometry" />
        </mxCell>
        <mxCell id="pw79kQl3bYv7xJwIm6q7-39" value="&lt;div align=&quot;left&quot;&gt;&lt;ul&gt;&lt;li&gt;Request / Response structs&lt;/li&gt;&lt;li&gt;Mapping&lt;/li&gt;&lt;li&gt;Validation&lt;/li&gt;&lt;li&gt;Service calls&lt;/li&gt;&lt;/ul&gt;&lt;/div&gt;" style="text;html=1;align=left;verticalAlign=middle;whiteSpace=wrap;rounded=0;" parent="pw79kQl3bYv7xJwIm6q7-1" vertex="1">
          <mxGeometry x="540" y="1230" width="200" height="100" as="geometry" />
        </mxCell>
        <mxCell id="pw79kQl3bYv7xJwIm6q7-40" value="&lt;ul&gt;&lt;li&gt;Application packages may have more broad names / purposes.&lt;/li&gt;&lt;li&gt;Library packages typically have more fine grained names / purposes.&lt;/li&gt;&lt;/ul&gt;" style="text;html=1;align=left;verticalAlign=middle;whiteSpace=wrap;rounded=0;" parent="pw79kQl3bYv7xJwIm6q7-1" vertex="1">
          <mxGeometry x="540" y="920" width="460" height="100" as="geometry" />
        </mxCell>
        <mxCell id="pw79kQl3bYv7xJwIm6q7-41" value="&lt;ul&gt;&lt;li&gt;&quot;Business logic&quot;&lt;/li&gt;&lt;li&gt;Data persistence&lt;/li&gt;&lt;li&gt;Calling out to other systems&lt;/li&gt;&lt;/ul&gt;" style="text;html=1;align=left;verticalAlign=middle;whiteSpace=wrap;rounded=0;" parent="pw79kQl3bYv7xJwIm6q7-1" vertex="1">
          <mxGeometry x="540" y="1440" width="200" height="100" as="geometry" />
        </mxCell>
        <mxCell id="pw79kQl3bYv7xJwIm6q7-42" value="&lt;ul&gt;&lt;li&gt;Plain structs&lt;/li&gt;&lt;li&gt;Domain models&lt;/li&gt;&lt;li&gt;Struct tags for DB serialization&lt;br&gt;&lt;/li&gt;&lt;/ul&gt;" style="text;html=1;align=left;verticalAlign=middle;whiteSpace=wrap;rounded=0;" parent="pw79kQl3bYv7xJwIm6q7-1" vertex="1">
          <mxGeometry x="540" y="1555" width="200" height="100" as="geometry" />
        </mxCell>
        <mxCell id="pw79kQl3bYv7xJwIm6q7-43" value="&lt;ul&gt;&lt;li&gt;cmd is a familiar pattern to organize application entrypoints&lt;br&gt;&lt;/li&gt;&lt;/ul&gt;" style="text;html=1;align=left;verticalAlign=middle;whiteSpace=wrap;rounded=0;" parent="pw79kQl3bYv7xJwIm6q7-1" vertex="1">
          <mxGeometry x="550" y="580" width="460" height="100" as="geometry" />
        </mxCell>
        <mxCell id="pw79kQl3bYv7xJwIm6q7-44" value="&lt;ul&gt;&lt;li&gt;Dependency initialization&lt;/li&gt;&lt;li&gt;Calls lambda runtime to register handler&lt;/li&gt;&lt;li&gt;No other logic&lt;br&gt;&lt;/li&gt;&lt;/ul&gt;" style="text;html=1;align=left;verticalAlign=middle;whiteSpace=wrap;rounded=0;" parent="pw79kQl3bYv7xJwIm6q7-1" vertex="1">
          <mxGeometry x="550" y="795" width="460" height="100" as="geometry" />
        </mxCell>
        <mxCell id="pw79kQl3bYv7xJwIm6q7-45" value="gorm.io/gorm" style="rounded=0;whiteSpace=wrap;html=1;fillColor=#f8cecc;strokeColor=#b85450;dashed=1;" parent="pw79kQl3bYv7xJwIm6q7-1" vertex="1">
          <mxGeometry x="-140" y="1575" width="230" height="60" as="geometry" />
        </mxCell>
        <mxCell id="pw79kQl3bYv7xJwIm6q7-46" value="gorm.go" style="sketch=0;aspect=fixed;pointerEvents=1;shadow=0;dashed=0;html=1;strokeColor=none;labelPosition=center;verticalLabelPosition=bottom;verticalAlign=top;align=center;fillColor=#00188D;shape=mxgraph.mscae.enterprise.code_file" parent="pw79kQl3bYv7xJwIm6q7-1" vertex="1">
          <mxGeometry x="-49.5" y="1700" width="49" height="50" as="geometry" />
        </mxCell>
        <mxCell id="pw79kQl3bYv7xJwIm6q7-47" style="edgeStyle=orthogonalEdgeStyle;curved=1;rounded=0;orthogonalLoop=1;jettySize=auto;html=1;entryX=0.5;entryY=0;entryDx=0;entryDy=0;entryPerimeter=0;" parent="pw79kQl3bYv7xJwIm6q7-1" source="pw79kQl3bYv7xJwIm6q7-45" target="pw79kQl3bYv7xJwIm6q7-46" edge="1">
          <mxGeometry relative="1" as="geometry" />
        </mxCell>
        <mxCell id="pw79kQl3bYv7xJwIm6q7-48" value="" style="edgeStyle=orthogonalEdgeStyle;curved=1;rounded=0;orthogonalLoop=1;jettySize=auto;html=1;" parent="pw79kQl3bYv7xJwIm6q7-1" source="pw79kQl3bYv7xJwIm6q7-49" target="pw79kQl3bYv7xJwIm6q7-51" edge="1">
          <mxGeometry relative="1" as="geometry" />
        </mxCell>
        <mxCell id="pw79kQl3bYv7xJwIm6q7-49" value="routes" style="rounded=0;whiteSpace=wrap;html=1;dashed=1;fillColor=#dae8fc;strokeColor=#6c8ebf;" parent="pw79kQl3bYv7xJwIm6q7-1" vertex="1">
          <mxGeometry x="90" y="1040" width="450" height="60" as="geometry" />
        </mxCell>
        <mxCell id="pw79kQl3bYv7xJwIm6q7-50" value="" style="edgeStyle=orthogonalEdgeStyle;curved=1;rounded=0;orthogonalLoop=1;jettySize=auto;html=1;" parent="pw79kQl3bYv7xJwIm6q7-1" source="pw79kQl3bYv7xJwIm6q7-51" target="pw79kQl3bYv7xJwIm6q7-24" edge="1">
          <mxGeometry relative="1" as="geometry" />
        </mxCell>
        <mxCell id="pw79kQl3bYv7xJwIm6q7-51" value="routes.go" style="sketch=0;aspect=fixed;pointerEvents=1;shadow=0;dashed=0;html=1;strokeColor=none;labelPosition=center;verticalLabelPosition=bottom;verticalAlign=top;align=center;fillColor=#00188D;shape=mxgraph.mscae.enterprise.code_file" parent="pw79kQl3bYv7xJwIm6q7-1" vertex="1">
          <mxGeometry x="290.5" y="1140" width="49" height="50" as="geometry" />
        </mxCell>
        <mxCell id="pw79kQl3bYv7xJwIm6q7-52" value="&lt;div align=&quot;left&quot;&gt;&lt;ul&gt;&lt;li&gt;Map routes to handlers&lt;/li&gt;&lt;li&gt;Necessary if routing is being controlled by code not infra &lt;br&gt;&lt;/li&gt;&lt;/ul&gt;&lt;/div&gt;" style="text;html=1;align=left;verticalAlign=middle;whiteSpace=wrap;rounded=0;" parent="pw79kQl3bYv7xJwIm6q7-1" vertex="1">
          <mxGeometry x="540" y="1020" width="410" height="100" as="geometry" />
        </mxCell>
        <mxCell id="uukCEqzcJxdAy9QWSZ3O-2" value="api" style="rounded=0;whiteSpace=wrap;html=1;fillColor=#dae8fc;strokeColor=#6c8ebf;" parent="pw79kQl3bYv7xJwIm6q7-1" vertex="1">
          <mxGeometry x="380" y="720" width="90" height="60" as="geometry" />
        </mxCell>
        <mxCell id="uukCEqzcJxdAy9QWSZ3O-3" value="" style="whiteSpace=wrap;html=1;aspect=fixed;" parent="pw79kQl3bYv7xJwIm6q7-1" vertex="1">
          <mxGeometry x="430" y="450" width="80" height="80" as="geometry" />
        </mxCell>
        <mxCell id="uukCEqzcJxdAy9QWSZ3O-9" style="edgeStyle=orthogonalEdgeStyle;curved=1;rounded=0;orthogonalLoop=1;jettySize=auto;html=1;entryX=0.5;entryY=0;entryDx=0;entryDy=0;" parent="pw79kQl3bYv7xJwIm6q7-1" source="uukCEqzcJxdAy9QWSZ3O-5" target="pw79kQl3bYv7xJwIm6q7-17" edge="1">
          <mxGeometry relative="1" as="geometry" />
        </mxCell>
        <mxCell id="uukCEqzcJxdAy9QWSZ3O-5" value="API" style="text;html=1;align=center;verticalAlign=middle;resizable=0;points=[];autosize=1;strokeColor=none;fillColor=none;" parent="pw79kQl3bYv7xJwIm6q7-1" vertex="1">
          <mxGeometry x="450" y="530" width="40" height="30" as="geometry" />
        </mxCell>
        <mxCell id="uukCEqzcJxdAy9QWSZ3O-6" value="" style="sketch=0;points=[[0,0,0],[0.25,0,0],[0.5,0,0],[0.75,0,0],[1,0,0],[0,1,0],[0.25,1,0],[0.5,1,0],[0.75,1,0],[1,1,0],[0,0.25,0],[0,0.5,0],[0,0.75,0],[1,0.25,0],[1,0.5,0],[1,0.75,0]];outlineConnect=0;fontColor=#232F3E;fillColor=#ED7100;strokeColor=#ffffff;dashed=0;verticalLabelPosition=bottom;verticalAlign=top;align=center;html=1;fontSize=12;fontStyle=0;aspect=fixed;shape=mxgraph.aws4.resourceIcon;resIcon=mxgraph.aws4.fargate;" parent="pw79kQl3bYv7xJwIm6q7-1" vertex="1">
          <mxGeometry x="447.5" y="467.5" width="45" height="45" as="geometry" />
        </mxCell>
        <mxCell id="uukCEqzcJxdAy9QWSZ3O-13" style="edgeStyle=orthogonalEdgeStyle;curved=1;rounded=0;orthogonalLoop=1;jettySize=auto;html=1;entryX=0.5;entryY=0;entryDx=0;entryDy=0;" parent="pw79kQl3bYv7xJwIm6q7-1" source="uukCEqzcJxdAy9QWSZ3O-11" target="pw79kQl3bYv7xJwIm6q7-19" edge="1">
          <mxGeometry relative="1" as="geometry" />
        </mxCell>
        <mxCell id="uukCEqzcJxdAy9QWSZ3O-11" value="main.go" style="sketch=0;aspect=fixed;pointerEvents=1;shadow=0;dashed=0;html=1;strokeColor=none;labelPosition=center;verticalLabelPosition=bottom;verticalAlign=top;align=center;fillColor=#00188D;shape=mxgraph.mscae.enterprise.code_file" parent="pw79kQl3bYv7xJwIm6q7-1" vertex="1">
          <mxGeometry x="401" y="830" width="49" height="50" as="geometry" />
        </mxCell>
        <mxCell id="uukCEqzcJxdAy9QWSZ3O-12" style="edgeStyle=orthogonalEdgeStyle;curved=1;rounded=0;orthogonalLoop=1;jettySize=auto;html=1;entryX=0.5;entryY=0;entryDx=0;entryDy=0;entryPerimeter=0;" parent="pw79kQl3bYv7xJwIm6q7-1" source="uukCEqzcJxdAy9QWSZ3O-2" target="uukCEqzcJxdAy9QWSZ3O-11" edge="1">
          <mxGeometry relative="1" as="geometry" />
        </mxCell>
      </root>
    </mxGraphModel>
  </diagram>
</mxfile>
